<svg width="32" height="32" viewBox="0 0 32 32" fill="none" xmlns="http://www.w3.org/2000/svg">
<g clip-path="url(#clip0)">
<path d="M1.33325 9.33325V29.3333C1.33325 30.0696 1.93021 30.6666 2.66659 30.6666H29.3333C30.0696 30.6666 30.6666 30.0696 30.6666 29.3333V9.33325M1.33325 9.33325V5.33325C1.33325 4.59687 1.93021 3.99992 2.66659 3.99992H6.66659M1.33325 9.33325H30.6666M30.6666 9.33325V5.33325C30.6666 4.59687 30.0696 3.99992 29.3333 3.99992H25.3333M6.66659 3.99992V1.33325M6.66659 3.99992V5.33325M6.66659 3.99992H25.3333M25.3333 3.99992V1.33325M25.3333 3.99992V5.33325" stroke="#1F2D3E" stroke-width="2.67" stroke-linecap="round" stroke-linejoin="round"/>
<path fill-rule="evenodd" clip-rule="evenodd" d="M7.99992 18.6666C9.47268 18.6666 10.6666 17.4727 10.6666 15.9999C10.6666 14.5272 9.47268 13.3333 7.99992 13.3333C6.52716 13.3333 5.33325 14.5272 5.33325 15.9999C5.33325 17.4727 6.52716 18.6666 7.99992 18.6666ZM7.99992 26.6666C9.47268 26.6666 10.6666 25.4727 10.6666 23.9999C10.6666 22.5272 9.47268 21.3333 7.99992 21.3333C6.52716 21.3333 5.33325 22.5272 5.33325 23.9999C5.33325 25.4727 6.52716 26.6666 7.99992 26.6666ZM18.6666 23.9999C18.6666 25.4727 17.4727 26.6666 15.9999 26.6666C14.5272 26.6666 13.3333 25.4727 13.3333 23.9999C13.3333 22.5272 14.5272 21.3333 15.9999 21.3333C17.4727 21.3333 18.6666 22.5272 18.6666 23.9999ZM15.9999 18.6666C17.4727 18.6666 18.6666 17.4727 18.6666 15.9999C18.6666 14.5272 17.4727 13.3333 15.9999 13.3333C14.5272 13.3333 13.3333 14.5272 13.3333 15.9999C13.3333 17.4727 14.5272 18.6666 15.9999 18.6666ZM26.6666 23.9999C26.6666 25.4727 25.4727 26.6666 23.9999 26.6666C22.5272 26.6666 21.3333 25.4727 21.3333 23.9999C21.3333 22.5272 22.5272 21.3333 23.9999 21.3333C25.4727 21.3333 26.6666 22.5272 26.6666 23.9999ZM23.9999 18.6666C25.4727 18.6666 26.6666 17.4727 26.6666 15.9999C26.6666 14.5272 25.4727 13.3333 23.9999 13.3333C22.5272 13.3333 21.3333 14.5272 21.3333 15.9999C21.3333 17.4727 22.5272 18.6666 23.9999 18.6666Z" fill="#1F2D3E"/>
</g>
<defs>
<clipPath id="clip0">
<rect width="32" height="32" fill="white"/>
</clipPath>
</defs>
</svg>
