<svg width="32" height="32" viewBox="0 0 32 32" fill="none" xmlns="http://www.w3.org/2000/svg">
<path fill-rule="evenodd" clip-rule="evenodd" d="M18.6667 20.6221V18.8583C19.7929 19.3088 21.1931 19.5556 22.6667 19.5556C24.1402 19.5556 25.5404 19.3088 26.6667 18.8583V20.6221C26.6661 20.623 26.6655 20.6241 26.6648 20.6255C26.6425 20.6653 26.5154 20.8929 25.8824 21.1831C25.1282 21.5287 23.9925 21.7778 22.6667 21.7778C21.3408 21.7778 20.2052 21.5287 19.451 21.1831C18.8179 20.8929 18.6908 20.6653 18.6686 20.6255C18.6678 20.6241 18.6672 20.623 18.6667 20.6221ZM29.3333 20.6667V15.7778C29.3333 14.2643 28.053 13.3229 26.9934 12.8372C25.8174 12.2982 24.2863 12 22.6667 12C21.047 12 19.516 12.2982 18.3399 12.8372C17.2803 13.3229 16 14.2643 16 15.7778V20.6667V25.5556C16 27.0691 17.2803 28.0105 18.3399 28.4961C19.516 29.0352 21.047 29.3333 22.6667 29.3333C23.2855 29.3333 24.1759 29.2239 25.0867 29.0092C24.0648 28.5693 23.2629 27.7159 22.8918 26.6596C22.8093 26.6643 22.7339 26.6667 22.6667 26.6667C21.3408 26.6667 20.2052 26.4176 19.451 26.072C18.8179 25.7818 18.6908 25.5542 18.6686 25.5144C18.6678 25.513 18.6672 25.5119 18.6667 25.511V23.7472C19.7929 24.1976 21.1931 24.4444 22.6667 24.4444C22.6998 24.4444 22.7328 24.4443 22.7659 24.4441C23.1702 22.6629 24.7632 21.3333 26.6667 21.3333C27.6911 21.3333 28.6257 21.7185 29.3333 22.3519V20.6667ZM25.8824 15.2614C26.3971 15.4973 26.5773 15.6919 26.6387 15.7778C26.5773 15.8637 26.3971 16.0583 25.8824 16.2942C25.1282 16.6399 23.9925 16.8889 22.6667 16.8889C21.3408 16.8889 20.2052 16.6399 19.451 16.2942C18.9363 16.0583 18.756 15.8637 18.6947 15.7778C18.756 15.6919 18.9363 15.4973 19.451 15.2614C20.2052 14.9157 21.3408 14.6667 22.6667 14.6667C23.9925 14.6667 25.1282 14.9157 25.8824 15.2614Z" fill="#1F2D3E"/>
<circle cx="26.6665" cy="25.3335" r="4" stroke="#1F2D3E" stroke-width="2.66667"/>
<path d="M3.33325 9.3335H1.33325V21.6668C1.33325 22.2191 1.78097 22.6668 2.33325 22.6668H12.6666" stroke="#1F2D3E" stroke-width="2.66667" stroke-linecap="round" stroke-linejoin="round"/>
<path d="M28.6666 10.6667L29.1038 9.16986C29.2612 8.63131 28.9447 8.06875 28.4028 7.92354L9.75011 2.92557C9.21664 2.78263 8.6683 3.09921 8.52536 3.63267L5.59802 14.5577C5.45278 15.0997 5.78191 15.6551 6.32711 15.788L12.6666 17.3334" stroke="#1F2D3E" stroke-width="2.66667" stroke-linecap="round" stroke-linejoin="round"/>
</svg>
