<svg width="100" height="100" viewBox="0 0 100 100" xmlns="http://www.w3.org/2000/svg"><path d="M97.495 35.174L51.167 12.275a2.633 2.633 0 00-2.366.01L2.478 35.806A2.714 2.714 0 001 38.234c0 1.028.571 1.97 1.478 2.427l10.103 5.135v15.632L7.048 83.904c-.355 1.45.512 2.926 1.945 3.287 2 .514 4.009.773 5.993.794.01 0 .015.005.02.005.065.005.18.01.25.01l.106-.005h.01c2.025-.01 4.094-.28 6.149-.804 1.428-.361 2.3-1.837 1.944-3.287l-5.537-22.477V48.512l6.239 3.165v13.566c0 9.46 11.345 16.869 25.833 16.869 14.487 0 25.833-7.41 25.833-16.869V51.346L97.547 40.03A2.717 2.717 0 0099 37.587a2.718 2.718 0 00-1.504-2.412h-.001zM70.489 65.243c0 6.203-9.38 11.44-20.491 11.44-11.105 0-20.491-5.242-20.491-11.44v-10.85L48.8 64.19c.375.188.786.284 1.197.284.421 0 .837-.101 1.218-.3l19.269-10.04.005 11.109zm-20.505-6.524L23.8 45.423l26.64-4.509c1.454-.244 2.44-1.643 2.195-3.124-.24-1.476-1.613-2.483-3.077-2.229l-33.885 5.735-6.024-3.058 40.366-20.492 40.334 19.938-40.365 21.035z"/></svg>