<svg width="32" height="32" viewBox="0 0 32 32" fill="none" xmlns="http://www.w3.org/2000/svg">
<path d="M3.99992 9.33325H15.9999H27.9999M3.99992 9.33325H1.33325L15.9999 1.33325L30.6666 9.33325H27.9999M3.99992 9.33325V13.3333H6.66659M27.9999 9.33325V13.3333H25.3333M6.66659 13.3333V25.3333M6.66659 13.3333H11.9999M6.66659 25.3333H3.99992V30.6666M6.66659 25.3333H11.9999M3.99992 30.6666H1.33325M3.99992 30.6666H27.9999M30.6666 30.6666H27.9999M27.9999 30.6666V25.3333H25.3333M25.3333 25.3333V13.3333M25.3333 25.3333H19.9999M25.3333 13.3333H19.9999M11.9999 25.3333V13.3333M11.9999 25.3333H19.9999M11.9999 13.3333H19.9999M19.9999 25.3333V13.3333" stroke="#1F2D3E" stroke-width="2.66667" stroke-linecap="round" stroke-linejoin="round"/>
</svg>
